<svg xmlns="http://www.w3.org/2000/svg" viewBox="0 0 151.14 221.06"><defs><style>.cls-1{fill:#fff;}</style></defs><g id="Layer_2" data-name="Layer 2"><g id="Layer_1-2" data-name="Layer 1"><path class="cls-1" d="M37.31,139.29a2.34,2.34,0,0,0,.27.15,75.12,75.12,0,0,0,103.06-31.25,1.3,1.3,0,0,0,.08-.17,73.78,73.78,0,0,0,4.15-9.59,10.78,10.78,0,0,0,0-6.94c8-9.16,6.41-15.45,5.32-17.76a8.11,8.11,0,0,0-7.77-4.7l-28.39,1.26a19.23,19.23,0,0,1-.77-11.17,2.68,2.68,0,0,0-2.74-3.39C92,56.79,62.81,66.45,49.71,72.72a2.47,2.47,0,0,0-.61.45l-23.44,1a3,3,0,0,0-.72.13c-1.59.52-6.42,2.1-6.82,6.07-.34,3.48,3,6.31,6.81,8.69l-7.32.32a6,6,0,0,0-4.49,9.72c.2.26.43.63.71,1.07,2.13,3.36,7.08,11.18,18.18,9.51H90.55a2.68,2.68,0,1,0,0-5.36H31.8a3.11,3.11,0,0,0-.43,0c-7.74,1.26-11-3.94-13-7-.39-.61-.72-1.12-1-1.48a.64.64,0,0,1-.08-.7.62.62,0,0,1,.57-.38l116.82-5.19a5,5,0,0,1,4.39,2.07,5.32,5.32,0,0,1,.75,5,70,70,0,0,1-3.26,7.7H109.21a2.68,2.68,0,0,0,0,5.36h24.42a69.35,69.35,0,0,1-11.71,14.58,2.64,2.64,0,0,0-.79-.16H91.26a2.68,2.68,0,1,0,0,5.36h24.46a69.46,69.46,0,0,1-64.44,10.14H68.42a2.68,2.68,0,0,0,0-5.36H39.35A69.45,69.45,0,0,1,5.32,86,2.68,2.68,0,0,0,0,86.88,74.79,74.79,0,0,0,37.31,139.29ZM107.5,61.37a26.27,26.27,0,0,0,1.07,9.16l-44.28,2C77.43,67.66,94.77,62.73,107.5,61.37Zm-76,25.34c-2.1-1.18-7.67-4.33-8-5.63,0,0,.41-.69,2.85-1.53l84.23-3.74a56.06,56.06,0,0,0,5.33,9.25l-81.12,3.6C34,88.14,33,87.56,31.47,86.71Zm103-2.47-12.08.53a56,56,0,0,1-6-9.22l26.38-1.17A2.71,2.71,0,0,1,145.39,76c1,2,.4,5.84-3.56,10.82A10.52,10.52,0,0,0,134.42,84.24Z"/><path class="cls-1" d="M50.71,124.94a2.68,2.68,0,0,0,0-5.36H40a2.68,2.68,0,0,0,0,5.36Z"/><path class="cls-1" d="M55.4,185.8a8.48,8.48,0,0,1-4.91,1.25,12.13,12.13,0,0,1-4.71-1,13.2,13.2,0,0,1-4.21-2.78l-1.24,2.2a14.88,14.88,0,0,0,4.62,3,14.27,14.27,0,0,0,5.5,1.12,13.33,13.33,0,0,0,5.07-.91,7.92,7.92,0,0,0,3.42-2.57,6.31,6.31,0,0,0,1.21-3.83,6.23,6.23,0,0,0-1.18-4,7.63,7.63,0,0,0-2.85-2.3,31.93,31.93,0,0,0-4.43-1.61A36.07,36.07,0,0,1,48,173.05a6.66,6.66,0,0,1-2.28-1.64,3.93,3.93,0,0,1-.93-2.71,3.41,3.41,0,0,1,1.69-3,8,8,0,0,1,4.46-1.1,13.38,13.38,0,0,1,3.71.56,14.11,14.11,0,0,1,3.63,1.6l1.16-2.28a15.62,15.62,0,0,0-3.92-1.74,15.89,15.89,0,0,0-4.43-.65,12.86,12.86,0,0,0-4.83.83A7.2,7.2,0,0,0,43,165.31a5.74,5.74,0,0,0-1.16,3.59A6.1,6.1,0,0,0,43,172.78,7.38,7.38,0,0,0,45.82,175a37.39,37.39,0,0,0,4.4,1.6c1.63.52,2.89,1,3.79,1.36a6.11,6.11,0,0,1,2.28,1.66,4.11,4.11,0,0,1,.93,2.78A3.92,3.92,0,0,1,55.4,185.8Z"/><polygon class="cls-1" points="83.3 164.76 83.3 162.37 65.21 162.37 65.21 189.37 83.8 189.37 83.8 186.98 67.88 186.98 67.88 176.82 81.67 176.82 81.67 174.42 67.88 174.42 67.88 164.76 83.3 164.76"/><path class="cls-1" d="M99.68,162.37H96.89l-12.17,27h2.86l3.17-7.18h15l3.21,7.18h2.9Zm-7.89,17.42,6.42-14.6,6.49,14.6Z"/><path class="cls-1" d="M27.58,212.22a7,7,0,0,0-1.43-4.62A8.58,8.58,0,0,0,22.81,205,40.45,40.45,0,0,0,18,203.41a23,23,0,0,1-3.38-1.12,1.57,1.57,0,0,1-1.06-1.44c0-.79.55-1.19,1.66-1.19a13.86,13.86,0,0,1,4.4,1,29.27,29.27,0,0,1,4.91,2.25L27.78,196a20.61,20.61,0,0,0-5.47-2.36,23.29,23.29,0,0,0-6.32-.89,15.93,15.93,0,0,0-6.1,1.08A9,9,0,0,0,5.83,197a8.05,8.05,0,0,0-1.43,4.74,6.69,6.69,0,0,0,1.39,4.44A8.51,8.51,0,0,0,9.1,208.6a35.57,35.57,0,0,0,4.77,1.53,19.22,19.22,0,0,1,3.46,1.1,1.61,1.61,0,0,1,1.1,1.45,1.28,1.28,0,0,1-.58,1.14,3,3,0,0,1-1.59.37,14.32,14.32,0,0,1-5.18-1.26,18.31,18.31,0,0,1-5.13-3l-3.33,6.76a20.79,20.79,0,0,0,6.32,3.22,23.35,23.35,0,0,0,7.25,1.18,16.44,16.44,0,0,0,5.75-1,9.05,9.05,0,0,0,4.12-3A7.9,7.9,0,0,0,27.58,212.22Z"/><path class="cls-1" d="M37.47,193.48,26,220.56h9.19l1.39-3.82H46.78l1.36,3.82h9.54l-11-27.08Zm1.47,16.84,2.86-7.92,2.78,7.92Z"/><polygon class="cls-1" points="84.26 193.48 74.72 193.48 66.64 203.37 66.64 193.48 57.68 193.48 57.68 220.56 66.64 220.56 66.64 213.99 69.19 211.13 74.91 220.56 85.61 220.56 75.34 204.29 84.26 194.34 84.26 200.55 91.95 200.55 91.95 220.56 100.91 220.56 100.91 200.55 108.64 200.55 108.64 193.48 85.03 193.48 84.26 193.48"/><polygon class="cls-1" points="126.56 203.99 118.18 203.99 118.18 193.48 109.22 193.48 109.22 220.56 118.18 220.56 118.18 210.79 126.56 210.79 126.56 220.56 135.53 220.56 135.53 193.48 126.56 193.48 126.56 203.99"/><rect class="cls-1" x="137.85" y="193.48" width="8.97" height="27.08"/><path class="cls-1" d="M15.43,64.53a2.68,2.68,0,0,0,2.68-2.68,56.49,56.49,0,1,1,113,0,2.69,2.69,0,0,0,5.37,0,61.85,61.85,0,0,0-123.7,0A2.68,2.68,0,0,0,15.43,64.53Z"/></g></g></svg>